<?xml version="1.0" encoding="iso-8859-1"?>
<!-- Uploaded to: SVG Repo, www.svgrepo.com, Generator: SVG Repo Mixer Tools -->
<svg fill="#000000" version="1.1" id="Layer_1" xmlns="http://www.w3.org/2000/svg" xmlns:xlink="http://www.w3.org/1999/xlink" 
	 viewBox="0 0 496 496" xml:space="preserve">
<g>
	<g>
		<g>
			<path d="M476.88,480l-144-280H256v-72h159.544l-45.712-64l45.712-64H240v200h-76.88l-144,280H0v16h496v-16H476.88z M256,48h80V32
				h-80V16h128.456l-11.432,16H352v16h9.6l-11.432,16L361.6,80H256V48z M256,96h117.024l11.432,16H256V96z M37.112,480L172.88,216
				h150.24l135.776,264H37.112z"/>
			<path d="M320,352c0-39.696-32.304-72-72-72s-72,32.304-72,72c0,20.616,8.696,39.944,24,53.624V416h-16v16h16v32h96v-32h16v-16
				h-16v-10.376C311.304,391.944,320,372.616,320,352z M280,448h-64v-16h64V448z M240,352c0-4.408,3.592-8,8-8s8,3.592,8,8
				c0,4.408-3.592,8-8,8C243.592,360,240,356.408,240,352z M282.992,395.68l-2.992,2.4V416h-24v-41.472
				c9.288-3.312,16-12.112,16-22.528c0-13.232-10.768-24-24-24s-24,10.768-24,24c0,10.416,6.712,19.216,16,22.528V416h-24v-17.92
				l-2.992-2.4C199.656,384.968,192,369.04,192,352c0-30.88,25.12-56,56-56s56,25.12,56,56
				C304,369.04,296.344,384.968,282.992,395.68z"/>
			<rect x="240" y="232" width="16" height="32"/>
			<rect x="158.459" y="270.458" transform="matrix(0.7071 0.7071 -0.7071 0.7071 247.9977 -41.8026)" width="32" height="16"/>
			<rect x="128" y="344" width="32" height="16"/>
			<rect x="336" y="344" width="32" height="16"/>
			<rect x="305.522" y="270.475" transform="matrix(-0.7071 0.7071 -0.7071 -0.7071 745.7845 248.0361)" width="32" height="16"/>
		</g>
	</g>
</g>
</svg>